<?xml version="1.0" encoding="utf-8"?>
<!-- Generator: Adobe Illustrator 20.0.0, SVG Export Plug-In . SVG Version: 6.00 Build 0)  -->
<svg version="1.1" id="Layer_1" xmlns="http://www.w3.org/2000/svg" xmlns:xlink="http://www.w3.org/1999/xlink" x="0px" y="0px"
	 viewBox="0 0 443 233" style="enable-background:new 0 0 443 233;" xml:space="preserve">
<style type="text/css">
	.st0{fill:#A07B13;}
	.st1{fill:#FFFFFF;stroke:#231F20;stroke-width:0.5;stroke-miterlimit:10;}
	.st2{fill:#FFFFFF;}
	.st3{font-family:'Rockwell';}
	.st4{font-size:62.93px;}
	.st5{fill:none;stroke:#231F20;stroke-width:0.5;stroke-miterlimit:10;}
	.st6{letter-spacing:-1;}
	.st7{fill:#231F20;}
	.st8{font-size:141.07px;}
	.st9{letter-spacing:-2;}
	.st10{fill:#E8CF42;}
</style>
<title>logoAsset 1</title>
<g id="Layer_2">
	<g id="Objects">
		<path class="st0" d="M86,214.2c2.9-1.9,4.8-5.1,5.6-9.2c-13.7-6.6-29.2-20.3-42.1-38.2c-14-19.5-21.5-39.4-21.3-53.6
			c-4.9-1.2-9.2-0.8-12.5,1.4c-3.1,2-5,5.4-5.8,9.8c0.8,14.4,8,33.1,20.2,51.8c10.9,16.6,21.9,27.9,32.4,34.9
			C72,216.4,80.4,217.9,86,214.2z"/>
		<rect x="26.4" y="119.2" class="st1" width="398.7" height="79.6"/>
		<text transform="matrix(1 0 0 1 144.6 174.71)" class="st2 st3 st4">b</text>
		<text transform="matrix(1 0 0 1 144.6 174.71)" class="st5 st3 st4">b</text>
		<text transform="matrix(1 0 0 1 185.25 174.71)" class="st2 st3 st4 st6">r</text>
		<text transform="matrix(1 0 0 1 185.25 174.71)" class="st5 st3 st4 st6">r</text>
		<text transform="matrix(1 0 0 1 209.92 174.71)" class="st2 st3 st4">anding</text>
		<text transform="matrix(1 0 0 1 209.92 174.71)" class="st5 st3 st4">anding</text>
		<text transform="matrix(1 0 0 1 142.95 118.43)" class="st7 st3 st8">B</text>
		<text transform="matrix(1 0 0 1 225.19 118.43)" class="st7 st3 st8 st9">R</text>
		<text transform="matrix(1 0 0 1 307.58 118.43)" class="st7 st3 st8">O</text>
		<path class="st10" d="M103.4,217.8c17.2-11.3,12.6-46.8-10.3-79.3s-55.5-49.7-72.7-38.4c-1.4,0.9-2.7,2.1-3.8,3.3
			c-4.4,4.9-6.5,12-6.5,20.6c0,0.1,0,0.3,0,0.4c0.8-4.4,2.7-7.8,5.8-9.8c3.3-2.2,7.6-2.5,12.5-1.4c13,3.1,30.3,16.9,44.4,36.9
			c14.6,20.8,21.6,42.2,19,54.8c-0.8,4.1-2.7,7.3-5.6,9.2c-5.6,3.6-14,2.2-23.4-3.2l-0.9-0.5C77.6,221.2,93.2,224.5,103.4,217.8z"/>
	</g>
</g>
</svg>
