<?xml version="1.0" encoding="utf-8"?>
<!-- Generator: Adobe Illustrator 21.1.0, SVG Export Plug-In . SVG Version: 6.00 Build 0)  -->
<svg version="1.1" id="Layer_1" xmlns="http://www.w3.org/2000/svg" xmlns:xlink="http://www.w3.org/1999/xlink" x="0px" y="0px"
	 viewBox="0 0 443 233" style="enable-background:new 0 0 443 233;" xml:space="preserve">
<style type="text/css">
	.st0{font-family:'Phosphate-Inline';}
	.st1{font-size:88.5991px;}
	.st2{fill:none;}
	.st3{fill:#231F20;}
	.st4{fill:#AB0715;}
</style>
<title>logoAsset 1</title>
<g id="Layer_2_1_">
	<g id="Objects_1_">
		<text transform="matrix(1 0 0 1 132.2439 138.9957)" class="st0 st1">Father</text>
		<line class="st2" x1="82.4" y1="112.9" x2="87" y2="110.4"/>
		<line class="st2" x1="123.5" y1="138.7" x2="127.7" y2="136.1"/>
		<polygon class="st2" points="121.5,132 121.5,87.9 81,109.9 		"/>
		<polygon class="st2" points="121.5,132 121.5,88.1 81,109.9 		"/>
		<polygon class="st2" points="81,109.9 81,109.9 121.5,88.1 121.5,87.9 		"/>
		<line class="st2" x1="121.5" y1="88.1" x2="126.1" y2="85.6"/>
		<line class="st2" x1="121.5" y1="88.1" x2="81" y2="109.9"/>
		<polygon class="st2" points="123.5,131.3 123.5,87.2 83.3,109.3 		"/>
		<polygon class="st2" points="123.5,131.3 123.5,87.2 83.3,109.3 		"/>
		<polygon class="st2" points="83.3,109.3 83.3,109.3 123.5,87.2 123.5,87.2 		"/>
		<line class="st2" x1="123.5" y1="87.2" x2="128.1" y2="84.7"/>
		<line class="st2" x1="123.5" y1="87.2" x2="83.3" y2="109.3"/>
		<polygon class="st2" points="38.7,86.5 38.7,130.4 79.2,108.6 		"/>
		<polygon class="st2" points="38.7,86.5 38.7,130.4 79.2,108.6 		"/>
		<polygon class="st2" points="79.2,108.6 79.2,108.6 38.7,130.4 38.7,130.4 		"/>
		<line class="st2" x1="38.7" y1="130.4" x2="34.1" y2="132.7"/>
		<line class="st2" x1="38.7" y1="130.4" x2="79.2" y2="108.6"/>
		<polygon class="st2" points="36.7,87.4 36.7,131.3 77.1,109.3 		"/>
		<polygon class="st2" points="36.7,87.4 36.7,131.3 77.1,109.3 		"/>
		<polygon class="st2" points="77.1,109.3 77.1,109.3 36.7,131.3 36.7,131.3 		"/>
		<line class="st2" x1="36.7" y1="131.3" x2="32.3" y2="133.8"/>
		<line class="st2" x1="36.7" y1="131.3" x2="77.1" y2="109.3"/>
		<polygon points="45.6,120.5 45.6,120.5 66.5,109 66.5,109 45.6,97.5 		"/>
		<path class="st2" d="M94.1,112.2l23,12.6V94.1l-23,12.6C94.3,108.6,94.3,110.4,94.1,112.2L94.1,112.2z"/>
		<path class="st2" d="M89.5,109l-0.7,0.5l0.7,0.5C89.5,109.7,89.5,109.5,89.5,109C89.5,109.3,89.5,109.3,89.5,109z"/>
		<polygon class="st2" points="121.5,87.2 121.5,87.2 93,102.8 93,102.8 		"/>
		<path class="st2" d="M71.8,109.3l13.8-7.6c-4.1-3-9.9-1.8-12.6,2.3c-3,4.1-1.8,9.9,2.3,12.6c3,2.1,7.1,2.1,10.3,0l-9-5.1
			L71.8,109.3z"/>
		<polygon class="st2" points="81,109.3 88.4,105.1 88.4,105.1 		"/>
		<path d="M90.2,99.4c0.9,0.9,1.8,2.3,2.8,3.4l28.7-15.6l0,0l0,0l4.4-2.5v-5.1L90.2,99.4z"/>
		<path d="M94.1,106.5l23-12.6v30.8l-23-12.4c-0.2,1.1-0.7,2.3-1.1,3.2l28.5,15.6V87.2l-28.7,15.6C93.4,104,93.9,105.1,94.1,106.5z"
			/>
		<polygon class="st3" points="121.5,131.3 93,115.7 93,115.7 121.5,131.3 121.5,87.2 121.5,87.2 		"/>
		<path class="st4" d="M121.5,87.2L121.5,87.2L121.5,87.2z"/>
		<path class="st4" d="M81,109.3L81,109.3L81,109.3z"/>
		<path class="st2" d="M67.7,103l-29-15.9v44.1l29-15.9C65.8,111.5,65.8,107.2,67.7,103z"/>
		<path class="st2" d="M79.2,109.3l-6.9-3.7c-1.1,2.3-1.1,5.3,0,7.6L79.2,109.3L79.2,109.3z"/>
		<path d="M38.7,87.4l29,15.9c0.7-1.4,1.6-2.8,2.8-3.9L34.1,79.6v54l4.4-2.5L38.7,87.4L38.7,87.4z"/>
		<path d="M38.7,131.3L38.7,131.3l-4.6,2.5v5.1l36.1-19.8c-0.9-0.9-1.8-2.3-2.5-3.7L38.7,131.3z"/>
		<path class="st2" d="M66.5,106.3L43.3,93.6v30.8l23.4-12.6C66.3,109.9,66.3,108.1,66.5,106.3z"/>
		<path class="st2" d="M71.4,109L71.4,109L71.4,109L71.4,109z"/>
		<path d="M43.3,124.4V93.6l23.4,12.6c0.2-1.1,0.7-2.3,1.1-3.2l0,0L38.7,87.2v44.1l29-15.9c-0.7-1.1-0.9-2.5-1.1-3.9L43.3,124.4z"/>
		<path d="M80.6,93.6c-8.7,0-15.9,7.1-15.9,15.9s7.1,15.9,15.9,15.9s15.9-7.1,15.9-15.9l0,0C96.4,100.7,89.3,93.6,80.6,93.6z
			 M80.6,120.7c-6.2,0-11.5-5.1-11.5-11.5c0-6.4,5.1-11.5,11.5-11.5S92,102.8,92,109.3C92,115.7,86.8,120.7,80.6,120.7L80.6,120.7z"
			/>
		<polygon points="114.8,97.8 114.8,97.8 93.7,109.5 93.7,109.5 114.8,120.7 		"/>
		<circle cx="80.6" cy="109.5" r="9"/>
		<path d="M119.2,128.6L93,113.2c-0.7,1.4-1.6,5.3-2.8,6.2l35.6,19.5V84.7l-7.8,1.8L119.2,128.6z"/>
	</g>
</g>
</svg>
