<?xml version="1.0" encoding="utf-8"?>
<!-- Generator: Adobe Illustrator 21.1.0, SVG Export Plug-In . SVG Version: 6.00 Build 0)  -->
<svg version="1.1" id="Layer_1" xmlns="http://www.w3.org/2000/svg" xmlns:xlink="http://www.w3.org/1999/xlink" x="0px" y="0px"
	 viewBox="0 0 161.9 110.6" style="enable-background:new 0 0 161.9 110.6;" xml:space="preserve">
<style type="text/css">
	.st0{fill:none;stroke:#000000;stroke-width:5;stroke-miterlimit:10;}
</style>
<g>
	<path d="M32.1,110.6c-8.6-0.1-11.9-0.9-15.5-3.2c-3.6-2.3-5.7-7.6-5.7-14.8V69.9c0-8.9-2.3-12-10.9-14.7
		c8.6-2.6,10.9-5.5,10.9-14.5V17.9c0-7.3,1.9-12.3,5.7-14.6c3.7-2.3,7.1-3.1,15.5-3.2v1.4c-8.9,2.3-11.7,6.2-11.7,15.8v21.6
		c0,10.7-2.4,14-12.1,16.6c9.6,2.4,12.1,5.8,12.1,16.4v21.6c0,9.6,2.8,13.5,11.7,15.8V110.6z"/>
	<path d="M150.9,40.7c0,9,2.3,11.9,10.9,14.5c-8.6,2.7-10.9,5.7-10.9,14.6v22.9c0,7.3-1.9,12.3-5.7,14.6c-3.7,2.3-7.1,3.1-15.5,3.2
		v-1.4c8.9-2.3,11.7-6.2,11.7-15.8V71.8c0-10.7,2.4-14,12.1-16.6c-9.6-2.4-12.1-5.7-12.1-16.4V17.2c0-9.6-2.8-13.5-11.7-15.8V0
		c8.6,0.1,11.9,0.9,15.5,3.2s5.7,7.6,5.7,14.8V40.7z"/>
</g>
<path class="st0" d="M26.1,82.2h8.6l21.4-53h-8.6l0.4-1.1h14.6c0.7,0,1.5,0,2.2,0s1.5-0.1,2.2-0.1s1.4,0,2.1,0s1.4,0,2.1,0
	c2.9,0,5.5,0.3,7.8,1c2.2,0.7,4,1.7,5.3,3s2.1,2.8,2.4,4.7s0,3.8-0.9,6c-0.9,2.3-2.4,4.4-4.3,6.2s-4.1,3.3-6.6,4.6
	c-2.5,1.2-5.1,2.2-8,2.9s-5.7,1-8.6,1c-0.7,0-1.6-0.1-2.7-0.2c-1.1-0.1-2-0.3-2.9-0.4L42.5,82.2h8.6l-0.4,1.1h-25L26.1,82.2z
	 M53.3,55.5c0.9,0.2,2,0.4,3.1,0.5s2.1,0.2,3,0.2c3.8,0,7.3-1.1,10.3-3.4c3.1-2.2,5.5-5.6,7.3-10.2c1.1-2.6,1.7-4.8,1.9-6.6
	c0.2-1.8-0.1-3.2-0.7-4.2c-0.7-1.1-1.8-1.8-3.4-2.2c-1.6-0.4-3.7-0.6-6.1-0.6c-1,0-1.9,0-2.7,0.1c-0.8,0.1-1.5,0.1-1.9,0.2
	L53.3,55.5z"/>
<path class="st0" d="M76.4,82.2H85l21.4-53h-8.6l0.4-1.1h14.6c0.7,0,1.5,0,2.2,0s1.5-0.1,2.2-0.1s1.4,0,2.1,0s1.4,0,2.1,0
	c2.9,0,5.5,0.3,7.8,1c2.2,0.7,4,1.7,5.3,3s2.1,2.8,2.4,4.7c0.3,1.8,0,3.8-0.9,6c-0.9,2.3-2.4,4.4-4.3,6.2c-1.9,1.8-4.1,3.3-6.6,4.6
	c-2.5,1.2-5.1,2.2-8,2.9s-5.7,1-8.6,1c-0.7,0-1.6-0.1-2.7-0.2c-1.1-0.1-2-0.3-2.9-0.4L92.8,82.2h8.6l-0.4,1.1H76L76.4,82.2z
	 M103.5,55.5c0.9,0.2,2,0.4,3.1,0.5s2.1,0.2,3,0.2c3.8,0,7.3-1.1,10.3-3.4c3.1-2.2,5.5-5.6,7.3-10.2c1.1-2.6,1.7-4.8,1.9-6.6
	s-0.1-3.2-0.7-4.2c-0.7-1.1-1.8-1.8-3.4-2.2c-1.6-0.4-3.7-0.6-6.1-0.6c-1,0-1.9,0-2.7,0.1c-0.8,0.1-1.5,0.1-1.9,0.2L103.5,55.5z"/>
</svg>
